<?xml version="1.0" encoding="UTF-8" standalone="no"?>
<svg
   width="17.7111in"
   height="15.5222in"
   viewBox="0 0 1594 1397"
   version="1.1"
   id="svg204"
   sodipodi:docname="otc-logo.svg"
   inkscape:version="1.2.1 (9c6d41e410, 2022-07-14, custom)"
   xmlns:inkscape="http://www.inkscape.org/namespaces/inkscape"
   xmlns:sodipodi="http://sodipodi.sourceforge.net/DTD/sodipodi-0.dtd"
   xmlns="http://www.w3.org/2000/svg"
   xmlns:svg="http://www.w3.org/2000/svg">
  <defs
     id="defs208" />
  <sodipodi:namedview
     id="namedview206"
     pagecolor="#ffffff"
     bordercolor="#000000"
     borderopacity="0.25"
     inkscape:showpageshadow="2"
     inkscape:pageopacity="0.0"
     inkscape:pagecheckerboard="0"
     inkscape:deskcolor="#d1d1d1"
     inkscape:document-units="in"
     showgrid="false"
     inkscape:zoom="0.5845123"
     inkscape:cx="1085.5203"
     inkscape:cy="748.48724"
     inkscape:window-width="1920"
     inkscape:window-height="1080"
     inkscape:window-x="0"
     inkscape:window-y="0"
     inkscape:window-maximized="1"
     inkscape:current-layer="svg204" />
  <path
     id="RedArea"
     fill="none"
     stroke="black"
     stroke-width="1"
     d="M 0.00,0.00            C 0.00,0.00 219.00,0.00 219.00,0.00              219.00,0.00 199.72,27.00 199.72,27.00              199.72,27.00 173.81,67.00 173.81,67.00              149.21,107.23 127.19,152.91 110.42,197.00              46.19,365.87 40.37,552.52 93.98,725.00              105.59,762.36 119.69,798.77 136.74,834.00              136.74,834.00 143.26,848.00 143.26,848.00              170.84,901.48 203.35,952.98 242.27,999.00              242.27,999.00 286.00,1047.00 286.00,1047.00              286.00,1047.00 316.00,1077.00 316.00,1077.00              316.00,1077.00 0.00,1077.00 0.00,1077.00              0.00,1077.00 0.00,0.00 0.00,0.00 Z            M 1434.00,0.00            C 1434.00,0.00 1594.00,0.00 1594.00,0.00              1594.00,0.00 1594.00,1077.00 1594.00,1077.00              1594.00,1077.00 1337.00,1077.00 1337.00,1077.00              1337.00,1077.00 1378.96,1035.00 1378.96,1035.00              1401.32,1011.62 1421.93,986.03 1441.12,960.00              1501.34,878.30 1546.26,781.44 1570.87,683.00              1577.96,654.65 1587.68,607.61 1590.00,579.00              1590.00,579.00 1082.00,579.00 1082.00,579.00              1082.00,579.00 1078.27,611.00 1078.27,611.00              1075.02,633.52 1070.89,655.91 1065.37,678.00              1044.61,761.05 1013.22,836.72 955.17,901.00              928.92,930.07 895.32,953.90 858.00,966.33              846.63,970.12 826.83,974.86 815.00,975.00              796.39,975.21 784.50,975.66 766.00,971.58              700.18,957.06 650.08,909.59 613.67,855.00              566.34,784.03 538.84,695.00 526.73,611.00              523.42,588.05 520.97,565.13 519.96,542.00              519.96,542.00 519.00,529.00 519.00,529.00              519.00,529.00 519.00,507.00 519.00,507.00              519.00,507.00 867.00,507.00 867.00,507.00              867.00,507.00 867.00,351.00 867.00,351.00              867.00,351.00 532.00,351.00 532.00,351.00              532.00,351.00 541.13,309.00 541.13,309.00              551.42,267.81 562.99,235.55 580.69,197.00              595.69,164.33 621.46,122.01 646.03,96.00              646.03,96.00 657.01,84.01 657.01,84.01              674.16,66.87 693.93,52.33 715.00,40.42              734.95,29.15 769.02,18.04 792.00,18.00              792.00,18.00 813.00,18.00 813.00,18.00              833.57,18.03 861.34,26.74 880.00,35.31              904.03,46.34 928.07,64.72 947.00,83.04              947.00,83.04 956.09,93.00 956.09,93.00              973.37,111.65 988.32,132.21 1001.40,154.00              1033.57,207.63 1054.96,267.05 1068.42,328.00              1073.39,350.49 1077.42,373.12 1080.15,396.00              1080.15,396.00 1083.00,423.00 1083.00,423.00              1083.00,423.00 1593.00,423.00 1593.00,423.00              1593.00,423.00 1590.16,393.00 1590.16,393.00              1587.51,368.16 1583.40,343.43 1578.21,319.00              1561.07,238.35 1533.36,163.04 1493.14,91.00              1481.10,69.44 1467.99,48.33 1453.98,28.00              1453.98,28.00 1434.00,0.00 1434.00,0.00 Z" />
  <path
     style="fill:#a90432;stroke-width:1.71083;fill-opacity:1"
     d="m 1458.6631,1118.4538 c 77.9567,-79.6321 135.7695,-166.99848 178.5891,-269.88313 25.9231,-62.28654 49.3426,-147.29539 57.266,-207.86559 1.0462,-7.99812 2.2377,-16.65919 2.6476,-19.24682 l 0.7454,-4.70478 h -272.5997 -272.5997 l -2.0639,18.39141 c -8.429,75.11237 -31.1709,154.62772 -62.5089,218.55827 -53.5198,109.18218 -126.41256,172.81174 -210.85928,184.06334 -61.23864,8.1594 -129.51476,-20.6397 -181.93093,-76.73905 -76.45472,-81.82698 -127.2741,-217.33785 -138.413,-369.08097 -0.96701,-13.17338 -1.76133,-29.91811 -1.76515,-37.21051 l -0.007,-13.25892 H 740.78851 926.41335 V 457.64648 373.81591 H 747.51653 c -169.59107,0 -178.84851,-0.15568 -177.96831,-2.99395 0.51068,-1.64667 2.90505,-12.23242 5.32083,-23.52388 5.93395,-27.73559 16.56282,-64.08218 26.01555,-88.96306 41.073,-108.10979 98.35077,-181.470949 168.98799,-216.439219 31.94726,-15.815183 45.43158,-19.195344 80.2127,-20.107192 31.88254,-0.835858 40.67806,0.312905 65.1667,8.511264 117.66911,39.393536 209.80661,192.889957 235.24851,391.912367 1.8991,14.85603 3.453,27.75139 3.453,28.65637 0,1.04643 99.3337,1.64539 272.877,1.64539 h 272.8771 v 347.29808 347.29812 h -134.549 -134.5489 z"
     id="path7465"
     transform="scale(0.93750099)" />
  <path
     style="fill:#a90432;fill-opacity:1;stroke-width:1.71083"
     d="M 0.85541399,573.98278 V 0.85541399 H 115.58186 c 91.29702,0 114.47509,0.43673141 113.49566,2.13853501 -0.67694,1.1761942 -4.78669,7.142707 -9.13277,13.258917 C 143.06976,124.43814 91.834108,249.52086 71.029128,379.80381 c -8.127829,50.89732 -9.368503,69.13586 -9.368503,137.72165 0,70.32554 1.32339,88.59875 10.283895,141.99872 17.034692,101.51797 50.88995,197.04407 101.25745,285.70828 15.61301,27.48433 50.37334,79.38934 68.17064,101.79424 17.68616,22.265 41.15056,48.2358 70.71668,78.2704 l 21.47279,21.8131 H 167.20875 0.85541399 Z"
     id="path7536"
     transform="scale(0.93750099)" />
  <path
     style="fill:#a90432;fill-opacity:1;stroke-width:1.71083"
     d="m 1697.9968,426.05498 c 0,-8.57554 -4.5847,-40.93097 -9.5839,-67.63652 C 1665.34,235.1641 1614.0256,114.18889 1543.4293,16.615652 L 1532.0265,0.85541399 h 83.8405 83.8406 V 216.41974 c 0,118.56038 -0.3849,215.56432 -0.8554,215.56432 -0.4705,0 -0.8554,-2.66808 -0.8554,-5.92908 z"
     id="path7538"
     transform="scale(0.93750099)" />
  <path
     id="GreyArea"
     fill="none"
     stroke="black"
     stroke-width="1"
     d="M 1028.00,789.00            C 1026.76,797.02 1021.31,810.10 1018.20,818.00              1018.20,818.00 998.26,865.00 998.26,865.00              998.26,865.00 984.74,893.00 984.74,893.00              962.89,935.36 927.07,990.09 893.99,1024.00              880.43,1037.89 866.95,1051.48 852.00,1063.92              848.47,1066.85 838.80,1075.21 835.00,1076.44              832.95,1077.11 830.17,1077.00 828.00,1077.00              828.00,1077.00 450.00,1077.00 450.00,1077.00              439.63,1076.98 437.88,1073.55 430.00,1067.20              430.00,1067.20 404.00,1044.01 404.00,1044.01              404.00,1044.01 396.17,1036.83 396.17,1036.83              361.47,1002.13 331.96,961.52 307.58,919.00              259.26,834.73 229.62,741.54 213.59,646.00              208.34,614.74 205.07,583.56 202.91,552.00              202.91,552.00 202.00,542.00 202.00,542.00              202.00,542.00 201.00,522.00 201.00,522.00              201.00,522.00 201.00,450.00 201.00,450.00              201.00,450.00 202.00,430.00 202.00,430.00              202.00,430.00 202.91,420.00 202.91,420.00              202.91,420.00 205.83,384.00 205.83,384.00              208.68,355.52 212.78,327.08 218.40,299.00              231.88,231.62 248.95,177.02 276.42,114.00              276.42,114.00 296.00,74.00 296.00,74.00              303.10,61.50 301.12,60.02 312.00,60.00              312.00,60.00 684.00,60.00 684.00,60.00              684.00,60.00 659.00,83.04 659.00,83.04              648.14,93.47 632.37,112.61 623.42,125.00              575.74,191.05 546.99,271.35 532.00,351.00              532.00,351.00 867.00,351.00 867.00,351.00              867.00,351.00 867.00,507.00 867.00,507.00              867.00,507.00 519.00,507.00 519.00,507.00              519.00,507.00 519.00,528.00 519.00,528.00              519.00,528.00 519.91,540.00 519.91,540.00              519.91,540.00 521.83,568.00 521.83,568.00              526.88,620.08 535.21,665.78 550.28,716.00              565.29,766.02 589.45,820.50 619.86,863.00              656.50,914.21 703.92,957.66 767.00,971.58              785.50,975.66 793.64,975.03 812.00,975.00              830.42,974.97 856.08,967.58 873.00,960.28              924.48,938.07 963.62,896.07 994.00,850.00              994.00,850.00 1017.69,809.00 1017.69,809.00              1020.96,802.95 1024.20,793.78 1028.00,789.00 Z            M 95.00,1173.46            C 108.82,1171.55 125.60,1172.74 137.00,1181.53              141.16,1184.73 146.76,1190.53 149.53,1195.00              165.16,1220.19 160.55,1262.15 134.00,1278.53              122.74,1285.48 113.56,1285.14 101.00,1285.00              76.02,1284.70 58.40,1263.56 55.29,1240.00              51.32,1209.97 62.93,1180.58 95.00,1173.46 Z            M 1195.00,1245.00            C 1194.59,1263.66 1183.97,1277.84 1166.00,1283.23              1158.67,1285.43 1151.56,1285.09 1144.00,1285.00              1137.57,1284.92 1130.66,1283.20 1125.00,1280.10              1104.81,1269.03 1099.75,1247.30 1100.00,1226.00              1100.17,1211.98 1105.32,1193.99 1116.09,1184.46              1133.81,1168.80 1168.36,1168.22 1184.82,1186.04              1192.25,1194.09 1193.15,1200.85 1195.00,1211.00              1195.00,1211.00 1179.00,1211.00 1179.00,1211.00              1169.07,1210.81 1172.90,1205.94 1166.66,1199.18              1159.46,1191.39 1146.79,1190.35 1138.00,1195.97              1122.21,1206.06 1120.50,1229.57 1125.44,1246.00              1128.86,1257.39 1138.55,1266.67 1151.00,1265.91              1158.96,1265.42 1164.97,1261.73 1169.19,1255.00              1172.09,1250.36 1171.57,1247.56 1173.58,1246.02              1175.89,1244.27 1191.25,1245.00 1195.00,1245.00 Z            M 468.00,1175.00            C 468.00,1175.00 554.00,1175.00 554.00,1175.00              554.00,1175.00 554.00,1194.00 554.00,1194.00              554.00,1194.00 523.00,1194.00 523.00,1194.00              523.00,1194.00 523.00,1282.00 523.00,1282.00              523.00,1282.00 500.00,1282.00 500.00,1282.00              500.00,1282.00 500.00,1194.00 500.00,1194.00              500.00,1194.00 468.00,1194.00 468.00,1194.00              468.00,1194.00 468.00,1175.00 468.00,1175.00 Z            M 636.00,1175.00            C 636.00,1175.00 658.00,1175.00 658.00,1175.00              658.00,1175.00 658.00,1282.00 658.00,1282.00              658.00,1282.00 636.00,1282.00 636.00,1282.00              636.00,1282.00 636.00,1175.00 636.00,1175.00 Z            M 1349.00,1175.00            C 1349.00,1175.00 1371.00,1175.00 1371.00,1175.00              1371.00,1175.00 1371.00,1282.00 1371.00,1282.00              1371.00,1282.00 1349.00,1282.00 1349.00,1282.00              1349.00,1282.00 1349.00,1276.00 1349.00,1276.00              1340.37,1284.42 1337.73,1285.14 1326.00,1285.00              1295.30,1284.63 1288.06,1244.85 1297.87,1222.00              1303.01,1210.04 1312.49,1201.17 1326.00,1201.00              1337.73,1200.86 1340.26,1201.68 1349.00,1210.00              1349.00,1210.00 1349.00,1175.00 1349.00,1175.00 Z            M 104.00,1192.29            C 97.61,1193.36 91.83,1195.32 87.18,1200.10              70.89,1216.90 73.27,1263.40 105.00,1265.82              118.02,1266.81 128.67,1257.79 132.91,1246.00              140.70,1224.35 132.35,1190.22 104.00,1192.29 Z            M 194.00,1211.00            C 203.05,1194.55 229.25,1199.54 238.96,1213.01              249.79,1228.05 251.05,1255.34 240.90,1271.00              233.35,1282.63 225.35,1286.16 212.00,1286.00              202.94,1285.89 198.52,1283.13 193.00,1276.00              193.00,1276.00 193.00,1315.00 193.00,1315.00              193.00,1315.00 171.00,1315.00 171.00,1315.00              171.00,1315.00 171.00,1203.00 171.00,1203.00              171.00,1203.00 193.00,1203.00 193.00,1203.00              193.00,1203.00 194.00,1211.00 194.00,1211.00 Z            M 330.00,1259.00            C 327.74,1265.48 325.26,1271.04 319.96,1275.68              310.03,1284.37 301.45,1285.15 289.00,1285.00              277.05,1284.85 266.70,1278.49 260.90,1268.00              257.65,1262.11 256.08,1254.69 256.00,1248.00              255.85,1234.62 256.81,1221.60 266.32,1211.09              279.71,1196.31 309.05,1197.54 321.48,1213.01              329.35,1222.80 330.96,1236.82 331.00,1249.00              331.00,1249.00 277.00,1249.00 277.00,1249.00              277.50,1251.74 278.21,1256.61 279.22,1259.00              280.13,1261.13 281.46,1263.07 283.19,1264.61              288.53,1269.37 296.02,1269.80 301.98,1266.01              309.02,1261.53 305.21,1259.06 315.00,1259.00              315.00,1259.00 330.00,1259.00 330.00,1259.00 Z            M 366.00,1212.00            C 371.70,1201.62 380.41,1200.88 391.00,1201.00              399.85,1201.11 407.25,1203.96 411.92,1212.00              414.71,1216.81 415.93,1225.45 416.00,1231.00              416.00,1231.00 416.00,1282.00 416.00,1282.00              416.00,1282.00 394.00,1282.00 394.00,1282.00              394.00,1282.00 394.00,1236.00 394.00,1236.00              393.99,1231.09 394.18,1227.12 390.61,1223.21              383.66,1215.61 371.22,1219.47 367.05,1228.01              364.38,1233.47 365.00,1241.00 365.00,1247.00              365.00,1247.00 365.00,1282.00 365.00,1282.00              365.00,1282.00 344.00,1282.00 344.00,1282.00              344.00,1282.00 344.00,1203.00 344.00,1203.00              344.00,1203.00 365.00,1203.00 365.00,1203.00              365.00,1203.00 366.00,1212.00 366.00,1212.00 Z            M 622.00,1259.00            C 619.74,1265.48 617.26,1271.04 611.96,1275.68              602.03,1284.37 593.45,1285.15 581.00,1285.00              569.05,1284.85 558.70,1278.49 552.90,1268.00              549.65,1262.11 548.08,1254.69 548.00,1248.00              547.85,1234.62 548.81,1221.60 558.32,1211.09              571.71,1196.31 601.05,1197.54 613.48,1213.01              621.35,1222.80 622.96,1236.82 623.00,1249.00              623.00,1249.00 569.00,1249.00 569.00,1249.00              569.50,1251.74 570.21,1256.61 571.22,1259.00              572.13,1261.13 573.46,1263.07 575.19,1264.61              580.53,1269.37 588.02,1269.80 593.98,1266.01              601.02,1261.53 597.21,1259.06 607.00,1259.00              607.00,1259.00 622.00,1259.00 622.00,1259.00 Z            M 745.00,1259.00            C 742.74,1265.48 740.26,1271.04 734.96,1275.68              725.03,1284.37 716.45,1285.15 704.00,1285.00              692.05,1284.85 681.70,1278.49 675.90,1268.00              672.65,1262.11 671.08,1254.69 671.00,1248.00              670.85,1234.62 671.81,1221.60 681.32,1211.09              694.71,1196.31 724.05,1197.54 736.48,1213.01              744.35,1222.80 745.96,1236.82 746.00,1249.00              746.00,1249.00 692.00,1249.00 692.00,1249.00              692.50,1251.74 693.21,1256.61 694.22,1259.00              695.13,1261.13 696.46,1263.07 698.19,1264.61              703.53,1269.37 711.02,1269.80 716.98,1266.01              724.02,1261.53 720.21,1259.06 730.00,1259.00              730.00,1259.00 745.00,1259.00 745.00,1259.00 Z            M 827.00,1254.00            C 826.25,1269.41 816.39,1281.65 801.00,1284.77              797.59,1285.17 791.63,1285.04 788.00,1284.77              780.78,1284.91 773.80,1282.47 768.04,1278.07              755.07,1268.17 754.83,1252.68 755.00,1238.00              755.15,1225.25 760.56,1212.00 772.00,1205.36              779.98,1200.73 787.17,1200.90 796.00,1201.00              814.13,1201.22 826.17,1214.23 827.00,1232.00              827.00,1232.00 806.00,1232.00 806.00,1232.00              803.35,1217.88 791.38,1214.59 783.10,1222.22              777.58,1227.32 775.75,1237.73 776.04,1245.00              776.29,1251.51 778.17,1259.23 783.10,1263.78              792.85,1272.76 803.79,1265.63 806.00,1254.00              806.00,1254.00 827.00,1254.00 827.00,1254.00 Z            M 866.00,1201.47            C 878.40,1199.74 893.15,1200.67 903.00,1209.21              921.03,1224.83 920.86,1264.13 901.00,1278.37              891.60,1285.10 882.92,1285.12 872.00,1285.00              853.02,1284.77 840.30,1271.15 837.22,1253.00              836.82,1249.07 836.96,1243.11 837.22,1239.00              837.09,1231.97 838.82,1224.07 842.48,1218.00              847.97,1208.90 855.85,1203.85 866.00,1201.47 Z            M 953.00,1211.00            C 960.64,1197.50 987.76,1196.82 994.00,1212.00              997.31,1208.70 1000.68,1204.90 1005.00,1202.97              1009.79,1200.82 1014.88,1200.94 1020.00,1201.00              1029.56,1201.12 1038.57,1205.47 1041.89,1215.00              1044.35,1222.03 1044.00,1233.47 1044.00,1241.00              1044.00,1241.00 1044.00,1282.00 1044.00,1282.00              1044.00,1282.00 1022.00,1282.00 1022.00,1282.00              1022.00,1282.00 1022.00,1232.00 1022.00,1232.00              1021.76,1214.88 1003.67,1216.50 999.15,1228.00              997.49,1232.21 998.00,1241.18 998.00,1246.00              998.00,1246.00 998.00,1282.00 998.00,1282.00              998.00,1282.00 976.00,1282.00 976.00,1282.00              976.00,1282.00 976.00,1232.00 976.00,1232.00              975.77,1215.32 958.25,1216.06 953.23,1228.00              951.44,1232.26 952.00,1241.12 952.00,1246.00              952.00,1246.00 952.00,1282.00 952.00,1282.00              952.00,1282.00 930.00,1282.00 930.00,1282.00              930.00,1282.00 930.00,1203.00 930.00,1203.00              930.00,1203.00 952.00,1203.00 952.00,1203.00              952.00,1203.00 953.00,1211.00 953.00,1211.00 Z            M 1234.00,1201.47            C 1246.40,1199.74 1261.15,1200.67 1271.00,1209.21              1289.03,1224.83 1288.86,1264.13 1269.00,1278.37              1259.60,1285.10 1250.92,1285.12 1240.00,1285.00              1221.02,1284.77 1208.30,1271.15 1205.22,1253.00              1204.82,1249.07 1204.96,1243.11 1205.22,1239.00              1205.09,1231.97 1206.82,1224.07 1210.48,1218.00              1215.97,1208.90 1223.85,1203.85 1234.00,1201.47 Z            M 1457.00,1259.00            C 1454.74,1265.48 1452.26,1271.04 1446.96,1275.68              1437.03,1284.37 1428.45,1285.15 1416.00,1285.00              1404.05,1284.85 1393.70,1278.49 1387.90,1268.00              1384.65,1262.11 1383.08,1254.69 1383.00,1248.00              1382.85,1234.62 1383.81,1221.60 1393.32,1211.09              1406.71,1196.31 1436.05,1197.54 1448.48,1213.01              1456.35,1222.80 1457.96,1236.82 1458.00,1249.00              1458.00,1249.00 1404.00,1249.00 1404.00,1249.00              1404.50,1251.74 1405.21,1256.61 1406.22,1259.00              1407.13,1261.13 1408.46,1263.07 1410.19,1264.61              1415.53,1269.37 1423.02,1269.80 1428.98,1266.01              1436.02,1261.53 1432.21,1259.06 1442.00,1259.00              1442.00,1259.00 1457.00,1259.00 1457.00,1259.00 Z            M 1539.00,1254.00            C 1538.25,1269.41 1528.39,1281.65 1513.00,1284.77              1509.59,1285.17 1503.63,1285.04 1500.00,1284.77              1492.78,1284.91 1485.80,1282.47 1480.04,1278.07              1467.07,1268.17 1466.83,1252.68 1467.00,1238.00              1467.15,1225.25 1472.56,1212.00 1484.00,1205.36              1491.98,1200.73 1499.17,1200.90 1508.00,1201.00              1526.13,1201.22 1538.17,1214.23 1539.00,1232.00              1539.00,1232.00 1518.00,1232.00 1518.00,1232.00              1515.35,1217.88 1503.38,1214.59 1495.10,1222.22              1489.58,1227.32 1487.75,1237.73 1488.04,1245.00              1488.29,1251.51 1490.17,1259.23 1495.10,1263.78              1504.85,1272.76 1515.79,1265.63 1518.00,1254.00              1518.00,1254.00 1539.00,1254.00 1539.00,1254.00 Z            M 308.00,1235.00            C 307.65,1230.78 306.93,1226.55 304.35,1223.04              298.87,1215.60 288.40,1215.26 282.27,1222.11              278.99,1225.78 278.23,1230.27 278.00,1235.00              278.00,1235.00 308.00,1235.00 308.00,1235.00 Z            M 600.00,1235.00            C 599.65,1230.78 598.93,1226.55 596.35,1223.04              590.87,1215.60 580.40,1215.26 574.27,1222.11              570.99,1225.78 570.23,1230.27 570.00,1235.00              570.00,1235.00 600.00,1235.00 600.00,1235.00 Z            M 723.00,1235.00            C 722.65,1230.78 721.93,1226.55 719.35,1223.04              713.87,1215.60 703.40,1215.26 697.27,1222.11              693.99,1225.78 693.23,1230.27 693.00,1235.00              693.00,1235.00 723.00,1235.00 723.00,1235.00 Z            M 1435.00,1235.00            C 1434.65,1230.78 1433.93,1226.55 1431.35,1223.04              1425.87,1215.60 1415.40,1215.26 1409.27,1222.11              1405.99,1225.78 1405.23,1230.27 1405.00,1235.00              1405.00,1235.00 1435.00,1235.00 1435.00,1235.00 Z            M 874.00,1218.33            C 851.00,1224.02 854.04,1265.70 875.00,1267.80              883.50,1268.66 889.90,1262.59 892.61,1255.00              897.70,1240.79 893.24,1216.62 874.00,1218.33 Z            M 1242.00,1218.33            C 1219.00,1224.02 1222.04,1265.70 1243.00,1267.80              1251.50,1268.66 1257.90,1262.59 1260.61,1255.00              1265.70,1240.79 1261.24,1216.62 1242.00,1218.33 Z            M 206.00,1219.39            C 193.68,1223.37 192.87,1235.01 193.00,1246.00              193.04,1249.41 193.18,1251.69 194.22,1255.00              196.30,1261.65 200.62,1267.26 208.00,1267.89              217.10,1268.68 222.01,1263.05 224.64,1255.00              229.25,1240.87 225.31,1216.82 206.00,1219.39 Z            M 1329.00,1219.34            C 1315.02,1223.41 1312.97,1243.15 1317.11,1255.00              1319.93,1263.08 1327.22,1268.76 1336.00,1266.58              1342.94,1264.87 1346.52,1258.46 1348.10,1252.00              1351.48,1238.16 1347.14,1217.27 1329.00,1219.34 Z"
     style="fill:#231f20;fill-opacity:1" />
</svg>
